<?xml version="1.0" encoding="UTF-8" standalone="no"?>
<!DOCTYPE svg PUBLIC "-//W3C//DTD SVG 1.1//EN" "http://www.w3.org/Graphics/SVG/1.1/DTD/svg11.dtd">
<svg width="100%" height="100%" viewBox="0 0 485 132" version="1.1" xmlns="http://www.w3.org/2000/svg" xmlns:xlink="http://www.w3.org/1999/xlink" xml:space="preserve" xmlns:serif="http://www.serif.com/" style="fill-rule:evenodd;clip-rule:evenodd;stroke-linejoin:round;stroke-miterlimit:1.41421;">
    <g transform="matrix(0.24,0,0,0.24,0,-300)">
        <g id="No-stroke---black-text" serif:id="No stroke - black text" transform="matrix(0.992004,0,0,1.15961,829.494,518.317)">
            <rect x="-836.18" y="630.974" width="2036.28" height="474.297" style="fill:none;"/>
            <g transform="matrix(1.00806,0,0,0.862359,-1000.95,303.176)">
                <text x="562.45px" y="783.118px" style="font-family:'AvenirNext-DemiBold', 'Avenir Next', sans-serif;font-weight:600;font-size:500px;">p</text>
                <text x="858.95px" y="783.118px" style="font-family:'AvenirNext-DemiBold', 'Avenir Next', sans-serif;font-weight:600;font-size:500px;">o</text>
                <text x="1133.95px" y="783.118px" style="font-family:'AvenirNext-DemiBold', 'Avenir Next', sans-serif;font-weight:600;font-size:500px;">l<tspan x="1255.45px " y="783.118px ">y</tspan></text>
                <text x="1499.45px" y="783.118px" style="font-family:'AvenirNext-DemiBold', 'Avenir Next', sans-serif;font-weight:600;font-size:500px;">l</text>
                <text x="1598.45px" y="783.118px" style="font-family:'AvenirNext-DemiBold', 'Avenir Next', sans-serif;font-weight:600;font-size:500px;">i</text>
                <text x="1722.45px" y="783.118px" style="font-family:'AvenirNext-DemiBold', 'Avenir Next', sans-serif;font-weight:600;font-size:500px;">t</text>
                <text x="1879.95px" y="783.118px" style="font-family:'AvenirNext-DemiBold', 'Avenir Next', sans-serif;font-weight:600;font-size:500px;">h</text>
            </g>
            <g transform="matrix(0.658811,0,0,0.606833,-921.171,227.767)">
                <g transform="matrix(1.25516,0,0,1.16453,-1881.37,769.121)">
                    <path d="M1758.96,151.601L1758.96,134.656C1759,123.272 1768.94,113.841 1779.81,113.807C1802.85,113.807 1825.89,113.736 1848.93,113.808C1861.07,113.92 1870.87,124.373 1871.04,135.778C1871.09,141.104 1871.07,146.43 1871.06,151.756C1833.69,151.798 1796.32,151.719 1758.96,151.601ZM1653.24,151.239L1653.1,151.239C1641.81,151.134 1632.46,141.348 1632.29,130.56C1632.04,104.741 1632.22,78.92 1632.29,53.101C1632.4,41.666 1642.33,32.325 1653.24,32.292C1761.13,32.292 1869.01,31.958 1976.9,32.292C1988.33,32.399 1997.54,42.199 1997.71,52.971C1997.96,78.79 1997.78,104.611 1997.71,130.43C1997.6,141.865 1987.74,151.072 1977.03,151.238L1976.83,151.239C1946.43,151.145 1916.03,151.239 1885.62,151.239L1885.62,136.043C1885.56,115.856 1868.16,99.402 1849.02,99.224C1825.87,99.152 1802.72,99.152 1779.57,99.224C1764.84,99.365 1751.42,109.096 1746.53,122.465C1743.25,131.419 1744.38,141.396 1744.38,151.239L1653.24,151.239Z" style="fill:rgb(148,148,148);"/>
                </g>
                <g transform="matrix(1.25516,0,0,1.16453,-1881.37,769.121)">
                    <path d="M1780.54,247.338L1849.61,247.338L1849.69,247.338L1849.82,247.339C1850.51,247.347 1851.2,247.391 1851.88,247.468L1851.97,247.479L1852.04,247.487C1860.08,248.491 1867.11,254.455 1869.85,261.969C1870.59,264.042 1871,266.232 1871.04,268.466C1871.1,274.071 1871.07,279.678 1871.06,285.284C1833.7,285.328 1796.35,285.251 1758.99,285.134L1758.99,268.885C1759.02,257.108 1769.33,247.373 1780.54,247.338ZM1653.28,284.77L1653.14,284.77C1641.86,284.666 1632.5,274.854 1632.34,264.091C1632.09,238.272 1632.27,212.451 1632.34,186.632C1632.45,175.472 1642.23,165.991 1653.02,165.824C1685.91,165.518 1718.81,165.823 1751.71,165.823C1754.04,165.454 1756.27,164.657 1757.61,162.817C1758.5,161.594 1758.76,160.042 1759,158.531L1759,134.653C1759.03,123.296 1769,113.841 1779.85,113.807C1802.94,113.807 1826.03,113.595 1849.12,113.809C1861.14,113.996 1870.9,124.36 1871.09,135.781C1871.16,143.364 1871.09,150.947 1871.09,158.531C1871.45,160.856 1872.25,163.093 1874.09,164.43C1875.32,165.319 1876.87,165.583 1878.38,165.823L1976.8,165.823C1988.12,165.859 1997.59,175.693 1997.75,186.502C1998,212.321 1997.83,238.142 1997.75,263.961C1997.64,275.121 1987.86,284.601 1977.08,284.769L1976.87,284.77C1961.67,284.723 1946.47,284.723 1931.27,284.735C1916.07,284.747 1900.86,284.77 1885.66,284.77L1885.66,268.733C1885.64,264.576 1884.87,260.575 1883.48,256.848C1878.98,244.662 1867.96,235.544 1855.51,233.292L1855.5,233.291L1855.5,233.291L1855.46,233.283L1855.27,233.25L1855.08,233.216L1855.04,233.21L1855.04,233.21L1855.03,233.209C1853.34,232.926 1851.63,232.772 1849.9,232.755C1838.29,232.719 1826.69,232.701 1815.08,232.701C1803.48,232.701 1791.87,232.719 1780.26,232.755C1777.73,232.78 1775.22,233.088 1772.79,233.651L1772.78,233.653L1772.67,233.677L1772.49,233.72L1772.47,233.724C1768.51,234.673 1764.75,236.289 1761.34,238.446L1761.32,238.459L1761.31,238.469L1761.22,238.521L1761.12,238.589L1761.04,238.641L1760.97,238.682L1760.94,238.705L1760.89,238.733C1754.53,242.882 1749.43,248.93 1746.72,256.043C1743.35,264.916 1744.38,274.946 1744.38,284.77L1653.28,284.77Z" style="fill:rgb(99,177,50);"/>
                </g>
                <g transform="matrix(1.25516,0,0,1.16453,-1881.37,769.121)">
                    <path d="M1849.66,247.338C1860.92,247.339 1870.89,257.326 1871.07,268.463C1871.14,276.329 1871.07,284.196 1871.07,292.062C1871.19,292.813 1871.19,293.592 1871.43,294.315C1872.13,296.478 1874.01,297.928 1876.11,298.997L1878.36,299.354C1878.36,299.354 1976.93,299.354 1976.93,299.354C1988.36,299.461 1997.57,309.288 1997.74,320.033C1997.92,338.988 1997.79,357.944 1997.74,376.899C1997.63,388.32 1987.79,397.54 1977.06,397.707C1869.09,398.703 1761.11,398.046 1653.13,397.708C1641.84,397.604 1632.49,387.774 1632.32,377.029C1632.14,358.074 1632.27,339.118 1632.32,320.162C1632.43,308.908 1642.22,299.522 1653,299.355C1685.9,299.046 1718.8,299.354 1751.7,299.354C1752.45,299.235 1753.23,299.232 1753.95,298.997C1756.86,298.053 1758.5,295.158 1758.99,292.062L1758.99,268.885C1759.02,257.108 1769.33,247.373 1780.54,247.338L1849.66,247.338Z" style="fill:rgb(88,129,216);"/>
                </g>
            </g>
        </g>
    </g>
</svg>
